<svg xmlns="http://www.w3.org/2000/svg" viewBox="0 0 1024 1024">
    <path fill="#05ac47"
        d="M1024 0v1024H0V0h1024zM371.1 441.1L367.4 616c4.4 3.8 25.3-.7 28.4-7.7l83.3-190.7c.9-1.7 3.2-5.4 4.9-6.1 5.1-2 35.3 8.9 42.5 11.5 22.1 7.8 90.6 33.1 82.7 63.7-4 15.6-40.7 30.7-48.9 65.1-21.2 88.2 72.9 109.5 138.4 78.4 158.5-75.3 98-328.4-91.1-309.1-4.5.5-22 5.2-23.8 4.8-1.6-.4-18-20.8-21.7-24.3-79.3-76.1-212.9-51.7-259.2 47.8-2.7 5.8-10 30.1-11.8 32.2-1.2 1.5-24.2 12.1-29 15-108.6 67-99.1 230.9 16.2 284.6 8.2 3.8 27.4 8 32.6 11.4 3.1 2 11.7 16.3 15.5 20.5 58.3 63.8 143 60.8 222.7 47.7 130.7-21.5 206.8-116.6 351.3-64.7 8.6 3.1 22.8 11.7 29.5 13.5s0-4.9-1.5-6.5c-14.1-14.2-45.6-32.4-64.1-40.9-89.6-41-142.9-14-232.9-4.2-76.5 8.3-183.2 12.7-253.8-21.1-7-3.3-24.4-11.4-25.7-19.3l6.1-183c-1.4-9 21.4.9 24.2 2.7 7.3 4.6-9.6 1.5-11.1 3.9zM380 600l22.1-160.3c1.6-3.7 28.5 7 30.8 8.9 2.1 1.7 2.1 2.2 2 4.8-19.2 44.7-30.8 96.9-50.2 140.9-.9 2.1-1.8 5.9-4.8 5.7h.1z" />
    <path fill="#fff"
        d="M371.1 441.1c1.5-2.4 18.4.7 11.1-3.9-2.8-1.8-25.6-11.6-24.2-2.7l-6.1 183c1.2 8 18.7 16 25.7 19.3 70.7 33.8 177.3 29.5 253.8 21.1 90-9.8 143.3-36.9 232.9 4.2 18.5 8.5 50 26.7 64.1 40.9 1.5 1.5 8.3 8.3 1.5 6.5S909 699.1 900.4 696c-144.5-51.9-220.6 43.2-351.3 64.7-79.7 13.1-164.4 16.1-222.7-47.7-3.8-4.2-12.5-18.5-15.5-20.5-5.2-3.3-24.4-7.6-32.6-11.4-115.4-53.7-124.9-217.6-16.2-284.6 4.7-2.9 27.7-13.6 29-15 1.8-2.1 9.1-26.4 11.8-32.2 46.2-99.5 179.9-123.9 259.2-47.8 3.7 3.5 20.1 24 21.7 24.3 1.8.4 19.3-4.3 23.8-4.8 189.1-19.2 249.6 233.8 91.1 309.1-65.5 31.1-159.6 9.8-138.4-78.4 8.3-34.4 44.9-49.5 48.9-65.1 7.9-30.7-60.6-55.9-82.7-63.7-7.1-2.5-37.4-13.5-42.5-11.5-1.7.7-4 4.3-4.9 6.1l-83.3 190.7c-3 6.9-24 11.4-28.4 7.7l3.7-174.9zM380 600c3 0 3.9-3.7 4.8-5.7 19.4-44 31-96.2 50.2-140.9.1-2.6 0-3.2-2-4.8-2.3-1.9-29.2-12.6-30.8-8.9L380.1 600h-.1z" />
</svg>